<svg width="72" height="36" viewBox="0 0 72 36" fill="none" xmlns="http://www.w3.org/2000/svg">
<g clip-path="url(#clip0_2126_282804)">
<path d="M14.6061 7.26874C15.0031 7.2781 15.3778 7.3531 15.6163 7.50558C15.7317 7.57942 15.8306 7.67814 15.9048 7.79516C15.979 7.91223 16.0276 8.04495 16.0466 8.18325C16.1112 8.56134 16.1076 8.9487 16.037 9.32565L15.788 10.7307L14.3012 19.2957C14.1112 20.2208 14.002 21.2757 13.7705 21.9785C13.5158 22.7331 13.1544 23.1326 12.4805 23.3777C12.1057 23.5031 11.7174 23.5836 11.3246 23.6175L9.92071 23.7618L4.30907 24.3758L3.33553 24.4793L3.43684 25.4734L4.39881 34.7051C4.39157 34.9391 4.32196 35.1669 4.19715 35.3628C4.07234 35.5588 3.89744 35.716 3.69156 35.8166C3.46659 35.9326 3.21865 35.9948 2.96695 35.9997C2.71533 36.0045 2.46553 35.9517 2.23655 35.8445C2.02056 35.7417 1.83581 35.58 1.70202 35.3778C1.63541 35.2776 1.5834 35.168 1.54764 35.0524C1.50393 34.9083 1.47632 34.759 1.46563 34.6085L1.18196 32.272L0 23.0164C0.0219011 22.693 0.128327 22.3816 0.307791 22.1149C0.487423 21.848 0.733734 21.6352 1.02082 21.4999C1.31698 21.3348 1.64355 21.2883 2.03875 21.2312L3.18018 21.0551C4.69119 20.808 6.21125 20.618 7.71214 20.263L8.47824 14.5679L8.67025 13.1021C8.71808 12.6256 8.79372 12.1515 8.89603 11.6841C9.11764 10.8161 9.52578 10.0102 10.0905 9.32565C11.1913 7.95622 12.9413 7.24279 14.6061 7.26874Z" fill="url(#paint0_linear_2126_282804)"/>
<path fill-rule="evenodd" clip-rule="evenodd" d="M30.0535 15.5003C30.983 15.4844 31.902 15.7034 32.73 16.1372C33.5185 16.5622 34.2308 17.2179 34.8662 18.1046L35.1933 15.969H40.0061L38.2433 27.3999C38.0998 28.3307 37.6373 29.1781 36.9397 29.7902C36.2421 30.4023 35.3544 30.7385 34.4369 30.7385H33.0021L33.2424 28.7662C32.6058 29.5499 31.8179 30.1895 30.9286 30.645C30.0747 31.0706 29.1367 31.2888 28.1875 31.2819C26.536 31.2818 25.1814 30.6431 24.1235 29.3663C23.0655 28.0892 22.536 26.4311 22.5353 24.3927C22.5354 21.8389 23.2519 19.7183 24.685 18.0309C26.1183 16.3434 27.908 15.4997 30.0535 15.5003ZM31.193 19.7127C30.711 19.7025 30.2321 19.8036 29.793 20.0082C29.3542 20.2128 28.9653 20.5157 28.6554 20.8949C27.9816 21.6853 27.6452 22.6804 27.6452 23.8792C27.6452 24.8245 27.9248 25.5858 28.4847 26.163C29.0446 26.7402 29.7861 27.0278 30.7087 27.0258C31.7146 27.0257 32.5521 26.6238 33.2212 25.8197C33.8903 25.0154 34.2246 24.0086 34.2246 22.7995C34.2246 21.8832 33.9451 21.1398 33.3852 20.5694C32.8253 19.9992 32.0945 19.7134 31.193 19.7127Z" fill="url(#paint1_linear_2126_282804)"/>
<path d="M23.1837 8.11559L22.7823 10.8611C22.7773 10.9089 22.7808 10.9546 22.7727 11.0034C22.6076 12.079 22.4442 13.1547 22.2825 14.2296C21.7974 17.451 21.3066 20.7231 20.7001 23.93C19.9896 27.707 17.2309 30.1528 12.933 30.8152C12.5137 30.8797 10.7637 31.2046 7.38891 31.2212L6.25616 26.2605C10.4722 26.138 11.6589 26.0024 12.604 25.8913C14.4234 25.6784 15.7376 24.4286 16.0408 22.6273C16.522 19.7785 16.9807 16.8835 17.4244 14.0803L17.7824 11.8303L17.822 11.5776L18.3555 8.11559H23.1837Z" fill="url(#paint2_linear_2126_282804)"/>
<path d="M62.7006 15.6267C62.8192 15.6276 62.9378 15.635 63.0557 15.6486C63.1891 15.6631 63.3978 15.6953 63.6828 15.7441L62.6716 20.3804C62.3395 20.3029 62.0404 20.2447 61.7743 20.2052C61.5199 20.1675 61.2633 20.1475 61.0063 20.1465C60.028 20.1465 59.2562 20.461 58.6916 21.0899C58.1269 21.719 57.7398 22.6919 57.5308 24.0076L56.9654 27.7313C56.8375 28.5729 56.4204 29.34 55.7902 29.8937C55.1601 30.4472 54.3578 30.7512 53.5286 30.7505L51.4966 30.7405L53.7737 15.969H58.6443L58.2863 18.4897C58.7324 17.5547 59.3301 16.8428 60.08 16.3541C60.83 15.8655 61.7039 15.6226 62.7006 15.6267Z" fill="url(#paint3_linear_2126_282804)"/>
<path d="M69.5144 27.3472C69.3684 28.2934 68.898 29.1551 68.1887 29.7772C67.4795 30.3994 66.5771 30.7415 65.6444 30.7415H63.8932L66.1577 15.969H71.2686L69.5144 27.3472Z" fill="url(#paint4_linear_2126_282804)"/>
<path d="M49.5842 15.0694L49.4482 15.967H52.0253L51.4406 19.7405H48.8635L47.6593 27.6228C47.5264 28.4909 47.0958 29.2818 46.4456 29.8529C45.7953 30.4238 44.968 30.7376 44.1125 30.7375H42.1288L43.824 19.7395H41.4312L42.0159 15.966H44.4068L44.5409 15.0714L45.0446 11.6821H50.114L49.5842 15.0694Z" fill="url(#paint5_linear_2126_282804)"/>
<path d="M69.251 8.78828C70.0378 8.78834 70.6927 9.05164 71.2155 9.57741C71.4727 9.83535 71.675 10.1457 71.8098 10.4879C71.9446 10.8302 72.0092 11.1976 71.999 11.5666C72.0023 11.9383 71.9333 12.3073 71.7963 12.6513C71.6594 12.9953 71.4577 13.308 71.202 13.5708C70.9461 13.8336 70.6415 14.0412 70.3066 14.1818C69.9717 14.3224 69.6128 14.3932 69.251 14.3898C68.8932 14.3952 68.5377 14.3248 68.208 14.1818C67.8785 14.0389 67.5815 13.8268 67.3358 13.5599C67.0804 13.2996 66.8782 12.9886 66.7424 12.6463C66.6066 12.304 66.5391 11.9363 66.5446 11.5666C66.5458 10.8301 66.8315 10.124 67.3387 9.60328C67.8459 9.08246 68.5338 8.78911 69.251 8.78828Z" fill="url(#paint6_linear_2126_282804)"/>
<path d="M13.4724 0.000425819C14.4124 0.000425819 15.1946 0.314347 15.8179 0.9428C16.4412 1.57121 16.7528 2.36279 16.7529 3.31714C16.7611 3.76083 16.6812 4.20213 16.5175 4.61278C16.3537 5.02341 16.1094 5.39514 15.8006 5.70542C15.4985 6.02263 15.1361 6.27263 14.7363 6.44081C14.3367 6.60891 13.908 6.69199 13.4762 6.68362C13.0494 6.69051 12.6251 6.6066 12.2316 6.43683C11.8382 6.2671 11.4834 6.01512 11.1895 5.69746C10.884 5.3868 10.6429 5.01554 10.4803 4.60681C10.3178 4.1979 10.2365 3.75879 10.243 3.31714C10.2374 2.8821 10.3183 2.45036 10.4803 2.04837C10.6425 1.64625 10.8831 1.28237 11.1866 0.978624C11.4818 0.662895 11.8372 0.412507 12.2306 0.244229C12.6238 0.0760924 13.0465 -0.00671825 13.4724 0.000425819Z" fill="url(#paint7_linear_2126_282804)"/>
</g>
<defs>
<linearGradient id="paint0_linear_2126_282804" x1="36" y1="0" x2="36" y2="36" gradientUnits="userSpaceOnUse">
<stop stop-color="#2894FF"/>
<stop offset="1" stop-color="#7000E6"/>
</linearGradient>
<linearGradient id="paint1_linear_2126_282804" x1="36" y1="0" x2="36" y2="36" gradientUnits="userSpaceOnUse">
<stop stop-color="#2894FF"/>
<stop offset="1" stop-color="#7000E6"/>
</linearGradient>
<linearGradient id="paint2_linear_2126_282804" x1="36" y1="0" x2="36" y2="36" gradientUnits="userSpaceOnUse">
<stop stop-color="#2894FF"/>
<stop offset="1" stop-color="#7000E6"/>
</linearGradient>
<linearGradient id="paint3_linear_2126_282804" x1="36" y1="0" x2="36" y2="36" gradientUnits="userSpaceOnUse">
<stop stop-color="#2894FF"/>
<stop offset="1" stop-color="#7000E6"/>
</linearGradient>
<linearGradient id="paint4_linear_2126_282804" x1="36" y1="0" x2="36" y2="36" gradientUnits="userSpaceOnUse">
<stop stop-color="#2894FF"/>
<stop offset="1" stop-color="#7000E6"/>
</linearGradient>
<linearGradient id="paint5_linear_2126_282804" x1="36" y1="0" x2="36" y2="36" gradientUnits="userSpaceOnUse">
<stop stop-color="#2894FF"/>
<stop offset="1" stop-color="#7000E6"/>
</linearGradient>
<linearGradient id="paint6_linear_2126_282804" x1="36" y1="0" x2="36" y2="36" gradientUnits="userSpaceOnUse">
<stop stop-color="#2894FF"/>
<stop offset="1" stop-color="#7000E6"/>
</linearGradient>
<linearGradient id="paint7_linear_2126_282804" x1="36" y1="0" x2="36" y2="36" gradientUnits="userSpaceOnUse">
<stop stop-color="#2894FF"/>
<stop offset="1" stop-color="#7000E6"/>
</linearGradient>
<clipPath id="clip0_2126_282804">
<rect width="72" height="36" fill="white"/>
</clipPath>
</defs>
</svg>
